{
  "accessors": [
    {
      "bufferView": 2,
      "componentType": 5126,
      "count": 546,
      "max": [
        44.32963562011719,
        248.52833557128906,
        100.0
      ],
      "min": [
        -48.26945495605469,
        -248.52833557128906,
        -100.0
      ],
      "type": "VEC3"
    },
    {
      "bufferView": 2,
      "byteOffset": 6552,
      "componentType": 5126,
      "count": 546,
      "max": [
        1.0,
        1.0,
        1.0
      ],
      "min": [
        -0.9996531009674072,
        -1.0,
        -1.0
      ],
      "type": "VEC3"
    },
    {
      "bufferView": 1,
      "componentType": 5126,
      "count": 546,
      "max": [
        0.7136151790618896,
        0.8677067756652832
      ],
      "min": [
        0.2240207940340042,
        0.1261313557624817
      ],
      "type": "VEC2"
    },
    {
      "bufferView": 0,
      "componentType": 5125,
      "count": 1908,
      "type": "SCALAR"
    },
    {
      "bufferView": 2,
      "byteOffset": 13104,
      "componentType": 5126,
      "count": 546,
      "max": [
        44.32963562011719,
        248.52833557128906,
        100.0
      ],
      "min": [
        -48.26945495605469,
        -248.52833557128906,
        -100.0
      ],
      "type": "VEC3"
    },
    {
      "bufferView": 2,
      "byteOffset": 19656,
      "componentType": 5126,
      "count": 546,
      "max": [
        1.0,
        1.0,
        1.0
      ],
      "min": [
        -0.9996531009674072,
        -1.0,
        -1.0
      ],
      "type": "VEC3"
    },
    {
      "bufferView": 1,
      "byteOffset": 4368,
      "componentType": 5126,
      "count": 546,
      "max": [
        0.7136151790618896,
        0.8677067756652832
      ],
      "min": [
        0.2240207940340042,
        0.1261313557624817
      ],
      "type": "VEC2"
    },
    {
      "bufferView": 0,
      "byteOffset": 7632,
      "componentType": 5125,
      "count": 1908,
      "type": "SCALAR"
    },
    {
      "bufferView": 2,
      "byteOffset": 26208,
      "componentType": 5126,
      "count": 546,
      "max": [
        48.26945114135742,
        248.52833557128906,
        100.0
      ],
      "min": [
        -44.329627990722656,
        -248.52833557128906,
        -100.0
      ],
      "type": "VEC3"
    },
    {
      "bufferView": 2,
      "byteOffset": 32760,
      "componentType": 5126,
      "count": 546,
      "max": [
        0.9996531009674072,
        1.0,
        1.0
      ],
      "min": [
        -1.0,
        -1.0,
        -1.0
      ],
      "type": "VEC3"
    },
    {
      "bufferView": 1,
      "byteOffset": 8736,
      "componentType": 5126,
      "count": 546,
      "max": [
        0.7136151790618896,
        0.8677067756652832
      ],
      "min": [
        0.2240207940340042,
        0.1261313557624817
      ],
      "type": "VEC2"
    },
    {
      "bufferView": 0,
      "byteOffset": 15264,
      "componentType": 5125,
      "count": 1908,
      "type": "SCALAR"
    },
    {
      "bufferView": 2,
      "byteOffset": 39312,
      "componentType": 5126,
      "count": 546,
      "max": [
        48.26945114135742,
        248.52833557128906,
        100.0
      ],
      "min": [
        -44.329627990722656,
        -248.52833557128906,
        -100.0
      ],
      "type": "VEC3"
    },
    {
      "bufferView": 2,
      "byteOffset": 45864,
      "componentType": 5126,
      "count": 546,
      "max": [
        0.9996531009674072,
        1.0,
        1.0
      ],
      "min": [
        -1.0,
        -1.0,
        -1.0
      ],
      "type": "VEC3"
    },
    {
      "bufferView": 1,
      "byteOffset": 13104,
      "componentType": 5126,
      "count": 546,
      "max": [
        0.7136151790618896,
        0.8677067756652832
      ],
      "min": [
        0.2240207940340042,
        0.1261313557624817
      ],
      "type": "VEC2"
    },
    {
      "bufferView": 0,
      "byteOffset": 22896,
      "componentType": 5125,
      "count": 1908,
      "type": "SCALAR"
    },
    {
      "bufferView": 2,
      "byteOffset": 52416,
      "componentType": 5126,
      "count": 5979,
      "max": [
        132.84637451171875,
        91.80245208740234,
        317.00555419921875
      ],
      "min": [
        -132.84637451171875,
        -69.62208557128906,
        -306.0937805175781
      ],
      "type": "VEC3"
    },
    {
      "bufferView": 2,
      "byteOffset": 124164,
      "componentType": 5126,
      "count": 5979,
      "max": [
        0.9998482465744019,
        1.0,
        1.0
      ],
      "min": [
        -0.9998482465744019,
        -1.0,
        -1.0
      ],
      "type": "VEC3"
    },
    {
      "bufferView": 1,
      "byteOffset": 17472,
      "componentType": 5126,
      "count": 5979,
      "max": [
        0.9958009123802185,
        0.9991201758384705
      ],
      "min": [
        0.0008798724738880992,
        0.0008798724738880992
      ],
      "type": "VEC2"
    },
    {
      "bufferView": 0,
      "byteOffset": 30528,
      "componentType": 5125,
      "count": 18831,
      "type": "SCALAR"
    }
  ],
  "asset": {
    "extras": {
      "author": "SamiArt3D (https://sketchfab.com/samichakkour330)",
      "license": "CC-BY-NC-SA-4.0 (http://creativecommons.org/licenses/by-nc-sa/4.0/)",
      "source": "https://sketchfab.com/3d-models/simple-sport-car-c1b17c48222240528eb280767b3bbed1",
      "title": "Simple Sport Car"
    },
    "generator": "Sketchfab-12.66.0",
    "version": "2.0"
  },
  "bufferViews": [
    {
      "buffer": 0,
      "byteLength": 105852,
      "name": "floatBufferViews",
      "target": 34963
    },
    {
      "buffer": 0,
      "byteLength": 65304,
      "byteOffset": 105852,
      "byteStride": 8,
      "name": "floatBufferViews",
      "target": 34962
    },
    {
      "buffer": 0,
      "byteLength": 195912,
      "byteOffset": 171156,
      "byteStride": 12,
      "name": "floatBufferViews",
      "target": 34962
    }
  ],
  "buffers": [
    {
      "byteLength": 367068,
      "uri": "scene.bin"
    }
  ],
  "images": [
    {
      "uri": "textures/material_baseColor.png"
    },
    {
      "uri": "textures/material_1_baseColor.png"
    }
  ],
  "materials": [
    {
      "doubleSided": true,
      "name": "material",
      "pbrMetallicRoughness": {
        "baseColorTexture": {
          "index": 0
        },
        "metallicFactor": 0.0,
        "roughnessFactor": 0.6
      }
    },
    {
      "doubleSided": true,
      "name": "material_1",
      "pbrMetallicRoughness": {
        "baseColorTexture": {
          "index": 1
        },
        "metallicFactor": 0.0,
        "roughnessFactor": 0.6
      }
    }
  ],
  "meshes": [
    {
      "name": "BL_00_0",
      "primitives": [
        {
          "attributes": {
            "NORMAL": 1,
            "POSITION": 0,
            "TEXCOORD_0": 2
          },
          "indices": 3,
          "material": 0,
          "mode": 4
        }
      ]
    },
    {
      "name": "FL_00_0",
      "primitives": [
        {
          "attributes": {
            "NORMAL": 5,
            "POSITION": 4,
            "TEXCOORD_0": 6
          },
          "indices": 7,
          "material": 0,
          "mode": 4
        }
      ]
    },
    {
      "name": "BR_00_0",
      "primitives": [
        {
          "attributes": {
            "NORMAL": 9,
            "POSITION": 8,
            "TEXCOORD_0": 10
          },
          "indices": 11,
          "material": 0,
          "mode": 4
        }
      ]
    },
    {
      "name": "FR_00_0",
      "primitives": [
        {
          "attributes": {
            "NORMAL": 13,
            "POSITION": 12,
            "TEXCOORD_0": 14
          },
          "indices": 15,
          "material": 0,
          "mode": 4
        }
      ]
    },
    {
      "name": "Body_car_0",
      "primitives": [
        {
          "attributes": {
            "NORMAL": 17,
            "POSITION": 16,
            "TEXCOORD_0": 18
          },
          "indices": 19,
          "material": 1,
          "mode": 4
        }
      ]
    }
  ],
  "nodes": [
    {
      "children": [
        1
      ],
      "matrix": [
        0.5691176652908325,
        0.0,
        0.0,
        0.0,
        0.0,
        1.263695071453591e-16,
        -0.5691176652908325,
        0.0,
        0.0,
        0.5691176652908325,
        1.263695071453591e-16,
        0.0,
        0.0,
        0.0,
        0.0,
        1.0
      ],
      "name": "Sketchfab_model"
    },
    {
      "children": [
        2
      ],
      "matrix": [
        1.0,
        0.0,
        0.0,
        0.0,
        0.0,
        0.0,
        1.0,
        0.0,
        0.0,
        -1.0,
        0.0,
        0.0,
        0.0,
        0.0,
        0.0,
        1.0
      ],
      "name": "Dodge.fbx"
    },
    {
      "children": [
        3,
        6,
        8,
        10,
        12,
        14
      ],
      "name": "RootNode"
    },
    {
      "children": [
        4
      ],
      "matrix": [
        100.0,
        0.0,
        0.0,
        0.0,
        0.0,
        99.99999999999972,
        -7.5497901264043296e-06,
        0.0,
        0.0,
        7.5497901264043296e-06,
        99.99999999999972,
        0.0,
        965.4935913085938,
        389.4609069824219,
        121.59678649902344,
        1.0
      ],
      "name": "Hemi"
    },
    {
      "children": [
        5
      ],
      "matrix": [
        1.0,
        0.0,
        0.0,
        0.0,
        0.0,
        2.220446049250313e-16,
        1.0,
        0.0,
        0.0,
        -1.0,
        2.220446049250313e-16,
        0.0,
        0.0,
        0.0,
        0.0,
        1.0
      ],
      "name": "Object_4"
    },
    {
      "name": "Object_5"
    },
    {
      "children": [
        7
      ],
      "matrix": [
        0.4738456606864929,
        0.0,
        0.0,
        0.0,
        0.0,
        0.19066059589385986,
        0.0,
        0.0,
        0.0,
        0.0,
        0.4738456606864929,
        0.0,
        -102.09786987304688,
        -48.270572662353516,
        -170.2689971923828,
        1.0
      ],
      "name": "BL"
    },
    {
      "mesh": 0,
      "name": "BL_00_0"
    },
    {
      "children": [
        9
      ],
      "matrix": [
        0.4738456606864929,
        0.0,
        0.0,
        0.0,
        0.0,
        0.19066059589385986,
        0.0,
        0.0,
        0.0,
        0.0,
        0.4738456606864929,
        0.0,
        -102.09786987304688,
        -48.270572662353516,
        190.11886596679688,
        1.0
      ],
      "name": "FL"
    },
    {
      "mesh": 1,
      "name": "FL_00_0"
    },
    {
      "children": [
        11
      ],
      "matrix": [
        0.4738456606864929,
        0.0,
        0.0,
        0.0,
        0.0,
        0.19066059589385986,
        0.0,
        0.0,
        0.0,
        0.0,
        0.4738456606864929,
        0.0,
        100.92695617675781,
        -48.270572662353516,
        -170.2689971923828,
        1.0
      ],
      "name": "BR"
    },
    {
      "mesh": 2,
      "name": "BR_00_0"
    },
    {
      "children": [
        13
      ],
      "matrix": [
        0.4738456606864929,
        0.0,
        0.0,
        0.0,
        0.0,
        0.19066059589385986,
        0.0,
        0.0,
        0.0,
        0.0,
        0.4738456606864929,
        0.0,
        100.92695617675781,
        -48.270572662353516,
        190.11886596679688,
        1.0
      ],
      "name": "FR"
    },
    {
      "mesh": 3,
      "name": "FR_00_0"
    },
    {
      "children": [
        15
      ],
      "name": "Body"
    },
    {
      "mesh": 4,
      "name": "Body_car_0"
    }
  ],
  "samplers": [
    {
      "magFilter": 9729,
      "minFilter": 9987,
      "wrapS": 10497,
      "wrapT": 10497
    }
  ],
  "scene": 0,
  "scenes": [
    {
      "name": "Sketchfab_Scene",
      "nodes": [
        0
      ]
    }
  ],
  "textures": [
    {
      "sampler": 0,
      "source": 0
    },
    {
      "sampler": 0,
      "source": 1
    }
  ]
}
